<svg width="250" height="250" viewBox="0 0 250 250" fill="none" xmlns="http://www.w3.org/2000/svg">
<path d="M125 0L151.871 2.92243L177.486 11.5531L200.647 25.4884L220.27 44.0767L235.439 66.4489L245.444 91.559L249.817 118.233L248.353 145.223L241.122 171.267L228.461 195.148L210.962 215.749L189.444 232.107L164.913 243.457L138.515 249.267H111.485L85.0873 243.457L60.5558 232.107L39.0376 215.749L21.5389 195.148L8.87791 171.267L1.64668 145.223L0.183327 118.233L4.55625 91.559L14.561 66.4489L29.7297 44.0767L49.3532 25.4884L72.5139 11.5531L98.1287 2.92243L125 0Z" fill="white"/>
</svg>
