<svg width="250" height="250" viewBox="0 0 250 250" fill="none" xmlns="http://www.w3.org/2000/svg">
<path d="M125 0L152.815 3.13401L179.235 12.3789L202.936 27.2711L222.729 47.0638L237.621 70.7645L246.866 97.1849L250 125L246.866 152.815L237.621 179.235L222.729 202.936L202.936 222.729L179.235 237.621L152.815 246.866L125 250L97.1849 246.866L70.7645 237.621L47.0638 222.729L27.2711 202.936L12.3789 179.235L3.13401 152.815L0 125L3.13401 97.1849L12.3789 70.7645L27.2711 47.0638L47.0638 27.2711L70.7645 12.3789L97.1849 3.13401L125 0Z" fill="white"/>
</svg>
