<svg width="250" height="250" viewBox="0 0 250 250" fill="none" xmlns="http://www.w3.org/2000/svg">
<path d="M125 0L150.989 2.73155L175.842 10.8068L198.473 23.8729L217.893 41.3587L233.253 62.5L243.882 86.3729L249.315 111.934V138.066L243.882 163.627L233.253 187.5L217.893 208.641L198.473 226.127L175.842 239.193L150.989 247.268L125 250L99.011 247.268L74.1579 239.193L51.5268 226.127L32.1069 208.641L16.7468 187.5L6.11794 163.627L0.684761 138.066V111.934L6.11794 86.3729L16.7468 62.5L32.1069 41.3587L51.5268 23.8729L74.1579 10.8068L99.011 2.73155L125 0Z" fill="white"/>
</svg>
